<svg width="1912" height="1206" xmlns="http://www.w3.org/2000/svg"><title>localfile.root/canvas;1</title><path d="M0,0H1912V1206H0Z" style="pointer-events: visiblefill; fill: white;"></path><g><g transform="translate(245,121)"><title></title><path d="M0,0H1476V880H0Z" style="fill: white; stroke: black; stroke-width: 1; pointer-events: visiblefill; cursor: default;"></path><svg x="0" y="0" overflow="hidden" width="1476" height="880" viewBox="0 0 1476 880" style="pointer-events: visiblefill; cursor: default;"><g><path d="M0,827h48v5h48v27h49v11h48v4h48v2h48v-5h49v-19h48v6h48v9h48v4h49v4h48v2h96v-12h49v-46h48v-347h48v369h48v6h49v3h48v2h48v13h48v7h49v3h48v2h48v2h48v1h338L1592,883H0Z" style="stroke-linejoin: miter; stroke: rgb(255, 0, 0); stroke-width: 3; fill: none;"></path></g><g><path d="M0,91h48v758h48v13h49v9h48v3h48v1h48v2h97v1h193v1h338v1h675L1592,883H0Z" style="stroke-linejoin: miter; stroke: rgb(0, 0, 255); stroke-width: 3; fill: none;"></path></g><g><path d="M0,776h48v64h48v9h49v1h144v-2h49v-2h48v-7h48v-3h48v-3h49v-5h96v1h48v5h49v-1h48v6h48v7h48v5h49v6h48v7h48v5h48v4h49v2h48v3h48v1h97v1h289L1592,883H0Z" style="stroke-linejoin: miter; stroke: rgb(0, 154, 0); stroke-width: 3; fill: none;"></path></g></svg><g><g transform="translate(0,880)"><path d="M0,0h1476M0,-28V0M48,-14V0M96,-14V0M145,-14V0M193,-14V0M241,-28V0M289,-14V0M338,-14V0M386,-14V0M434,-14V0M482,-28V0M531,-14V0M579,-14V0M627,-14V0M675,-14V0M724,-28V0M772,-14V0M820,-14V0M868,-14V0M917,-14V0M965,-28V0M1013,-14V0M1061,-14V0M1110,-14V0M1158,-14V0M1206,-28V0M1254,-14V0M1303,-14V0M1351,-14V0M1399,-14V0M1447,-28V0" style="stroke: black; stroke-width: 1;"></path><g font-family="Arial" font-size="48" xml:space="preserve" fill="black" text-anchor="middle"><text dy=".8em" transform="translate(0,7)">0</text><text dy=".8em" transform="translate(241,7)">0.05</text><text dy=".8em" transform="translate(482,7)">0.1</text><text dy=".8em" transform="translate(724,7)">0.15</text><text dy=".8em" transform="translate(965,7)">0.2</text><text dy=".8em" transform="translate(1206,7)">0.25</text><text dy=".8em" transform="translate(1447,7)">0.3</text></g><rect x="0" y="0" width="1476" height="51" style="opacity: 0; cursor: crosshair;"></rect><g font-family="Arial" font-size="84" xml:space="preserve" transform="translate(738,134)" style="cursor: move; touch-action: none; -webkit-tap-highlight-color: rgba(0, 0, 0, 0);"><g transform="translate(-46,27)"><text fill="black" font-size="84">p</text><text fill="black" font-size="50" transform="translate(54,17)">kl</text></g></g></g><g><path d="M0,0v880M56,880H0M28,862H0M28,845H0M28,827H0M28,810H0M56,792H0M28,774H0M28,757H0M28,739H0M28,722H0M56,704H0M28,686H0M28,669H0M28,651H0M28,634H0M56,616H0M28,598H0M28,581H0M28,563H0M28,546H0M56,528H0M28,510H0M28,493H0M28,475H0M28,458H0M56,440H0M28,422H0M28,405H0M28,387H0M28,370H0M56,352H0M28,334H0M28,317H0M28,299H0M28,282H0M56,264H0M28,246H0M28,229H0M28,211H0M28,194H0M56,176H0M28,158H0M28,141H0M28,123H0M28,106H0M56,88H0M28,70H0M28,53H0M28,35H0M28,18H0M56,0H0" style="stroke: black; stroke-width: 1;"></path><g font-family="Arial" font-size="48" xml:space="preserve" fill="black" text-anchor="end"><text dominant-baseline="middle" transform="translate(-8,880)">0</text><text dominant-baseline="middle" transform="translate(-8,792)">0.1</text><text dominant-baseline="middle" transform="translate(-8,704)">0.2</text><text dominant-baseline="middle" transform="translate(-8,616)">0.3</text><text dominant-baseline="middle" transform="translate(-8,528)">0.4</text><text dominant-baseline="middle" transform="translate(-8,440)">0.5</text><text dominant-baseline="middle" transform="translate(-8,352)">0.6</text><text dominant-baseline="middle" transform="translate(-8,264)">0.7</text><text dominant-baseline="middle" transform="translate(-8,176)">0.8</text><text dominant-baseline="middle" transform="translate(-8,88)">0.9</text><text dominant-baseline="middle" transform="translate(-8)">1</text></g><rect x="-99" y="0" width="99" height="880" style="opacity: 0; cursor: crosshair;"></rect><g font-family="Arial" font-size="84" xml:space="preserve" transform="translate(-165,440)" style="cursor: move; touch-action: none; -webkit-tap-highlight-color: rgba(0, 0, 0, 0);"><text fill="black" text-anchor="middle" dominant-baseline="middle" transform="rotate(270)">Relative Frequency</text></g></g></g><path d="M2,2h15v-5h-20v20h5Z" style="opacity: 0; cursor: nw-resize; touch-action: none; -webkit-tap-highlight-color: rgba(0, 0, 0, 0);"></path><path d="M1474,2h-15v-5h20v20h-5 Z" style="opacity: 0; cursor: ne-resize; touch-action: none; -webkit-tap-highlight-color: rgba(0, 0, 0, 0);"></path><path d="M2,878h15v5h-20v-20h5Z" style="opacity: 0; cursor: sw-resize; touch-action: none; -webkit-tap-highlight-color: rgba(0, 0, 0, 0);"></path><path d="M1474,878h-15v5h20v-20h-5Z" style="opacity: 0; cursor: se-resize; touch-action: none; -webkit-tap-highlight-color: rgba(0, 0, 0, 0);"></path><path d="M-3,18h5v844h-5Z" style="opacity: 0; cursor: w-resize; touch-action: none; -webkit-tap-highlight-color: rgba(0, 0, 0, 0);"></path><path d="M1479,18h-5v844h5Z" style="opacity: 0; cursor: e-resize; touch-action: none; -webkit-tap-highlight-color: rgba(0, 0, 0, 0);"></path><path d="M18,-3v5h1440v-5Z" style="opacity: 0; cursor: n-resize; touch-action: none; -webkit-tap-highlight-color: rgba(0, 0, 0, 0);"></path><path d="M18,883v-5h1440v5Z" style="opacity: 0; cursor: s-resize; touch-action: none; -webkit-tap-highlight-color: rgba(0, 0, 0, 0);"></path></g><g transform="translate(593,329)" fill="black" style="cursor: move; touch-action: none; -webkit-tap-highlight-color: rgba(0, 0, 0, 0);"><path d="M0,0H382V193H0Z" style="fill: white; pointer-events: visiblefill;"></path><path d="M2,2h15v-5h-20v20h5Z" style="opacity: 0; cursor: nw-resize; touch-action: none; -webkit-tap-highlight-color: rgba(0, 0, 0, 0);"></path><path d="M380,2h-15v-5h20v20h-5 Z" style="opacity: 0; cursor: ne-resize; touch-action: none; -webkit-tap-highlight-color: rgba(0, 0, 0, 0);"></path><path d="M2,191h15v5h-20v-20h5Z" style="opacity: 0; cursor: sw-resize; touch-action: none; -webkit-tap-highlight-color: rgba(0, 0, 0, 0);"></path><path d="M380,191h-15v5h20v-20h-5Z" style="opacity: 0; cursor: se-resize; touch-action: none; -webkit-tap-highlight-color: rgba(0, 0, 0, 0);"></path><path d="M-3,18h5v157h-5Z" style="opacity: 0; cursor: w-resize; touch-action: none; -webkit-tap-highlight-color: rgba(0, 0, 0, 0);"></path><path d="M385,18h-5v157h5Z" style="opacity: 0; cursor: e-resize; touch-action: none; -webkit-tap-highlight-color: rgba(0, 0, 0, 0);"></path><path d="M18,-3v5h346v-5Z" style="opacity: 0; cursor: n-resize; touch-action: none; -webkit-tap-highlight-color: rgba(0, 0, 0, 0);"></path><path d="M18,196v-5h346v5Z" style="opacity: 0; cursor: s-resize; touch-action: none; -webkit-tap-highlight-color: rgba(0, 0, 0, 0);"></path></g><g transform="translate(1234,142)" font-family="Arial" font-size="79" xml:space="preserve" style="cursor: move; touch-action: none; -webkit-tap-highlight-color: rgba(0, 0, 0, 0);"><path d="M0,0H471V362H0Z" style="fill: white; pointer-events: visiblefill;"></path><path d="M14,68H104" style="stroke: rgb(255, 0, 0); stroke-width: 3;"></path><g transform="translate(118,97) scale(0.776)"><text font-style="italic" fill="black" font-size="102">p</text><text fill="black" font-size="61" transform="translate(77,-52)">(BB)</text><g transform="translate(77,21)"><text font-style="italic" fill="black" font-size="61">kl</text></g></g><path d="M14,181H104" style="stroke: rgb(0, 0, 255); stroke-width: 3;"></path><g transform="translate(118,210) scale(0.776)"><text font-style="italic" fill="black" font-size="102">p</text><text fill="black" font-size="61" transform="translate(77,-52)">(BE)</text><g transform="translate(77,21)"><text font-style="italic" fill="black" font-size="61">kl</text></g></g><path d="M14,294H104" style="stroke: rgb(0, 154, 0); stroke-width: 3;"></path><g transform="translate(118,324) scale(0.776)"><text font-style="italic" fill="black" font-size="102">p</text><text fill="black" font-size="61" transform="translate(77,-52)">(EE)</text><g transform="translate(77,21)"><text font-style="italic" fill="black" font-size="61">kl</text></g></g><path d="M2,2h15v-5h-20v20h5Z" style="opacity: 0; cursor: nw-resize; touch-action: none; -webkit-tap-highlight-color: rgba(0, 0, 0, 0);"></path><path d="M469,2h-15v-5h20v20h-5 Z" style="opacity: 0; cursor: ne-resize; touch-action: none; -webkit-tap-highlight-color: rgba(0, 0, 0, 0);"></path><path d="M2,360h15v5h-20v-20h5Z" style="opacity: 0; cursor: sw-resize; touch-action: none; -webkit-tap-highlight-color: rgba(0, 0, 0, 0);"></path><path d="M469,360h-15v5h20v-20h-5Z" style="opacity: 0; cursor: se-resize; touch-action: none; -webkit-tap-highlight-color: rgba(0, 0, 0, 0);"></path><path d="M-3,18h5v326h-5Z" style="opacity: 0; cursor: w-resize; touch-action: none; -webkit-tap-highlight-color: rgba(0, 0, 0, 0);"></path><path d="M474,18h-5v326h5Z" style="opacity: 0; cursor: e-resize; touch-action: none; -webkit-tap-highlight-color: rgba(0, 0, 0, 0);"></path><path d="M18,-3v5h435v-5Z" style="opacity: 0; cursor: n-resize; touch-action: none; -webkit-tap-highlight-color: rgba(0, 0, 0, 0);"></path><path d="M18,365v-5h435v5Z" style="opacity: 0; cursor: s-resize; touch-action: none; -webkit-tap-highlight-color: rgba(0, 0, 0, 0);"></path></g><g transform="translate(681,6)" font-family="Arial" font-size="56" xml:space="preserve" style="cursor: move; touch-action: none; -webkit-tap-highlight-color: rgba(0, 0, 0, 0);"><path d="M0,0H551V66H0Z" style="fill: none; pointer-events: visiblefill;"></path><text fill="none" text-anchor="middle" dominant-baseline="middle" transform="translate(276,33)">GMM BB Metric</text><path d="M2,2h15v-5h-20v20h5Z" style="opacity: 0; cursor: nw-resize; touch-action: none; -webkit-tap-highlight-color: rgba(0, 0, 0, 0);"></path><path d="M549,2h-15v-5h20v20h-5 Z" style="opacity: 0; cursor: ne-resize; touch-action: none; -webkit-tap-highlight-color: rgba(0, 0, 0, 0);"></path><path d="M2,64h15v5h-20v-20h5Z" style="opacity: 0; cursor: sw-resize; touch-action: none; -webkit-tap-highlight-color: rgba(0, 0, 0, 0);"></path><path d="M549,64h-15v5h20v-20h-5Z" style="opacity: 0; cursor: se-resize; touch-action: none; -webkit-tap-highlight-color: rgba(0, 0, 0, 0);"></path><path d="M-3,18h5v30h-5Z" style="opacity: 0; cursor: w-resize; touch-action: none; -webkit-tap-highlight-color: rgba(0, 0, 0, 0);"></path><path d="M554,18h-5v30h5Z" style="opacity: 0; cursor: e-resize; touch-action: none; -webkit-tap-highlight-color: rgba(0, 0, 0, 0);"></path><path d="M18,-3v5h515v-5Z" style="opacity: 0; cursor: n-resize; touch-action: none; -webkit-tap-highlight-color: rgba(0, 0, 0, 0);"></path><path d="M18,69v-5h515v5Z" style="opacity: 0; cursor: s-resize; touch-action: none; -webkit-tap-highlight-color: rgba(0, 0, 0, 0);"></path></g></g></svg>